<svg version="1" xmlns="http://www.w3.org/2000/svg" width="349.333" height="349.333" viewBox="0 0 262.000000 262.000000"><path d="M59 6.1c-7.9 4.7-14.4 12.7-13.4 16.6.3 1.1-.1 2.5-1 3.2-3.3 2.7-1.2 6.8 4.7 9 1.7.7 3.2 2.3 3.8 4.1.6 1.6 1.5 3 2 3s.9.6.9 1.4c0 .8 1.1 2.8 2.5 4.4 3 3.6 4.9 8 4.6 10.9-.1 1.3.6 2.6 1.8 3.3 1.2.6 2.1 2 2.1 3 0 1.1.5 2 1 2 1.5 0 1.2 13.4-.4 21-1.8 8.6-5.9 17.5-8.8 19.3-2.5 1.7-22.3 3.7-35.9 3.7-4.9 0-7.9.4-7.9 1.1 0 2 8.9 4.9 18 5.8 5.1.6 9.5 1.2 9.8 1.5.2.3-.8 1-2.4 1.6-4.5 1.8-22.9-1.1-25.7-3.9-2-2-3.6-1.1-6.9 3.6-2.9 4.3-3.2 5.5-3.2 11.8.1 11.2 1.1 12.1 16.4 15 16.5 3.1 25.3 6.7 34.1 13.7 3 2.4 6.6 5.1 8 6 2 1.3 2.8 2.8 3.2 6.3.4 2.6 1.3 5.9 2.1 7.3 1.5 2.7 2.7 7 3.1 10.7.1 1 1 2.4 2.1 3 1 .5 3 2.2 4.4 3.8 1.4 1.5 4 4.3 5.9 6.3 4.7 4.9 10.5 16.6 12 24.4.7 3.6 1.7 7.3 2.3 8.4.5 1 1.4 4.8 1.9 8.5s1.8 7.8 2.9 9.3c1.1 1.5 2 3.6 2 4.8v2.1l66.3-.3 66.2-.3 5.3-2.8c6.7-3.5 12.4-9.2 15.9-15.9l2.8-5.3.3-60.5.2-60.5-2.5 4.4c-3.2 5.5-8.4 12.1-9.6 12.1-1.8 0-.9-4.4 1.9-9.4 1.6-2.8 2.9-6.5 3-8.1.2-1.7.4-3.9.5-5 .2-1.7-.3-2-3.8-1.8-4.7.3-12.5 3-12.5 4.4 0 .5-1.9 1.9-4.2 3-2.4 1.1-6.1 3.1-8.3 4.4-4.4 2.7-8.4 3.2-10.3 1.3-1.9-1.9-1.5-2.9 3.9-7.8l5.1-4.7-6.4-2.2c-12.4-4.5-20.6-8.2-21.2-9.6-.3-.8.7-2.3 2.4-3.5 3.7-2.6 3.8-3.7.3-5.2-10.4-4.3-14.1-6.4-22.2-12.9-5-4.1-9.4-8.4-9.7-9.7-.4-1.2-1.4-2.2-2.3-2.2-2.4 0-11.9-5.7-13.1-7.9-3.3-6.2-43.1-25.4-59.1-28.5-1.4-.3-7-4.7-12.5-9.9C65.3 2.6 65 2.5 59 6.1zm45.4 40.5c3.5 1.3 4.3 7.4 1.1 7.4-1.9 0-7.5-4.9-7.5-6.6 0-1.5 3.6-1.9 6.4-.8z"/></svg>