<?xml version="1.0" encoding="UTF-8" standalone="no"?>
<!-- Created with Inkscape (http://www.inkscape.org/) -->

<svg
   xmlns:dc="http://purl.org/dc/elements/1.1/"
   xmlns:cc="http://creativecommons.org/ns#"
   xmlns:rdf="http://www.w3.org/1999/02/22-rdf-syntax-ns#"
   xmlns:svg="http://www.w3.org/2000/svg"
   xmlns="http://www.w3.org/2000/svg"
   xmlns:sodipodi="http://sodipodi.sourceforge.net/DTD/sodipodi-0.dtd"
   xmlns:inkscape="http://www.inkscape.org/namespaces/inkscape"
   version="1.1"
   id="svg22"
   width="279.46667"
   height="279.46667"
   viewBox="0 0 279.46667 279.46667"
   sodipodi:docname="logo_min.svg"
   inkscape:version="0.92.4 (5da689c313, 2019-01-14)">
  <metadata
     id="metadata28">
    <rdf:RDF>
      <cc:Work
         rdf:about="">
        <dc:format>image/svg+xml</dc:format>
        <dc:type
           rdf:resource="http://purl.org/dc/dcmitype/StillImage" />
        <dc:title></dc:title>
      </cc:Work>
    </rdf:RDF>
  </metadata>
  <defs
     id="defs26" />
  <sodipodi:namedview
     pagecolor="#ffffff"
     bordercolor="#666666"
     borderopacity="1"
     objecttolerance="10"
     gridtolerance="10"
     guidetolerance="10"
     inkscape:pageopacity="0"
     inkscape:pageshadow="2"
     inkscape:window-width="1920"
     inkscape:window-height="1027"
     id="namedview24"
     showgrid="false"
     inkscape:zoom="1.6889312"
     inkscape:cx="129.84303"
     inkscape:cy="205.67311"
     inkscape:window-x="-8"
     inkscape:window-y="22"
     inkscape:window-maximized="1"
     inkscape:current-layer="svg22" />
  <path
     style="fill:#000000;stroke-width:1.06666672"
     d="m 109.86817,274.28335 c -0.40804,-1.63488 -1.51165,-3.82659 -2.45245,-4.87047 -0.94079,-1.04388 -2.32956,-5.36388 -3.08615,-9.6 -2.18454,-12.23108 -6.475725,-27.47508 -8.302475,-29.49361 -0.92178,-1.01856 -2.44384,-4.10549 -3.38234,-6.85986 -1.1254,-3.30287 -2.66752,-5.50992 -4.52933,-6.48232 -1.55262,-0.81091 -3.67803,-3.07755 -4.72313,-5.03698 -1.0451,-1.95942 -3.565097,-4.64701 -5.599997,-5.97239 -2.547046,-1.65898 -3.699816,-3.21801 -3.699816,-5.00373 0,-1.42664 -0.499525,-2.90262 -1.110056,-3.27995 -0.610531,-0.37734 -0.842122,-1.53024 -0.514648,-2.56202 0.337269,-1.06264 -0.381857,-3.11835 -1.658699,-4.74159 -1.239758,-1.5761 -1.989129,-3.55615 -1.66527,-4.40012 0.323859,-0.84395 0.129798,-1.81817 -0.431246,-2.16491 -0.561044,-0.34676 -1.020081,-2.054 -1.020081,-3.7939 0,-2.37485 -0.650856,-3.4109 -2.610905,-4.15611 -1.435998,-0.54597 -4.435998,-2.6057 -6.666666,-4.57716 C 49.05557,163.0164 38.622328,158.39876 21.825815,155.09428 3.6672249,151.52183 2.6258139,150.64647 2.6258139,138.95569 c 0,-6.4554 0.426308,-8.24503 2.80198,-11.76265 3.611827,-5.34798 4.547486,-5.87483 7.2678741,-4.09236 2.95795,1.93812 16.479292,4.7435 22.862676,4.7435 2.78285,0 5.985409,-0.67687 7.116797,-1.50417 2.310104,-1.68918 3.403594,-1.39019 -13.649857,-3.73225 -8.364025,-1.14868 -15.736583,-3.54358 -15.728261,-5.10914 0.0025,-0.46994 5.162498,-0.98521 11.466667,-1.14504 12.099526,-0.30676 32.331148,-2.06018 34.828442,-3.01848 2.220459,-0.85208 7.69464,-11.81399 9.610544,-19.244875 1.872891,-7.26407 2.292871,-24.414084 0.623139,-25.446035 -0.586666,-0.36258 -1.066666,-1.475445 -1.066666,-2.473035 0,-0.997589 -0.899843,-2.375758 -1.999649,-3.062599 -1.399518,-0.874014 -1.842388,-2.071459 -1.475651,-3.989917 0.309673,-1.619951 0.03685,-2.741116 -0.667018,-2.741116 -0.655059,0 -1.191016,-0.885606 -1.191016,-1.968012 0,-1.082408 -0.882273,-2.766461 -1.960608,-3.74234 -1.078334,-0.975879 -3.358334,-4.489126 -5.066667,-7.807215 -1.80951,-3.514606 -4.379269,-6.738938 -6.156207,-7.724327 -1.677582,-0.930291 -4.060321,-2.475052 -5.294975,-3.432801 -2.065122,-1.601963 -2.123358,-1.986216 -0.72746,-4.8 0.834552,-1.682251 1.615,-4.365148 1.734329,-5.961994 0.403489,-5.399422 7.928936,-13.2818836 16.651361,-17.4413171 3.869179,-1.845083 3.938731,-1.837008 7.429651,0.862567 1.938151,1.498797 8.480916,7.3354141 14.539476,12.9702611 7.41914,6.900272 11.8316,10.245178 13.515016,10.245178 6.244759,0 36.443169,12.893472 51.140599,21.834921 3.48581,2.120658 8.57035,5.943995 11.29897,8.496305 5.24192,4.903194 10.45946,8.068774 13.29903,8.068774 0.93965,0 2.19703,1.401516 2.79418,3.114481 0.59714,1.712964 1.65217,3.336996 2.34451,3.608961 0.69233,0.271963 5.40969,3.849717 10.483,7.950563 6.36075,5.141507 11.60286,8.365027 16.88673,10.384107 l 7.66254,2.92802 -3.5534,3.685596 -3.55341,3.685599 2.35216,1.92024 c 1.2937,1.05614 7.8937,3.97381 14.66667,6.48372 6.77298,2.50991 12.31451,4.73847 12.31451,4.95237 0,0.21389 -2.2031,2.49983 -4.89576,5.07985 -6.10561,5.85021 -6.05087,8.46695 0.18672,8.92545 3.51109,0.25809 5.41284,-0.40353 9.96466,-3.46666 3.09398,-2.0821 6.21352,-3.78564 6.9323,-3.78564 0.71878,0 2.40049,-1.1641 3.73714,-2.5869 1.42587,-1.51776 4.69883,-3.09921 7.91928,-3.82647 3.01894,-0.68176 6.38182,-1.48676 7.47305,-1.78891 1.83719,-0.50866 1.92703,-0.0579 1.21364,6.08884 -0.49139,4.23376 -1.69299,7.9976 -3.31741,10.39132 -1.40082,2.06424 -2.54696,4.36691 -2.54696,5.11707 0,0.75015 -0.29135,2.12317 -0.64745,3.05115 -1.05469,2.74849 2.1037,1.98282 5.14015,-1.2461 1.51717,-1.61333 4.26536,-5.33333 6.10708,-8.26666 l 3.3486,-5.33334 -0.30752,58.13334 c -0.30647,57.93467 -0.31595,58.1542 -2.77409,64.23975 -5.28987,13.096 -15.61175,23.35133 -29.02444,28.83732 -5.79651,2.37086 -6.34527,2.392 -69.98353,2.69543 l -64.1412,0.30583 z m 2.4046,-221.698013 c 0.5119,-3.578127 -3.84857,-6.41568 -9.11362,-5.930645 -2.25897,0.208105 -1.47958,3.289162 1.53992,6.087545 3.34938,3.104097 7.11834,3.026018 7.5737,-0.1569 z"
     id="path48"
     inkscape:connector-curvature="0" />
</svg>
