<?xml version="1.0" encoding="UTF-8" standalone="no"?>
<!-- Created with Inkscape (http://www.inkscape.org/) -->

<svg
   xmlns:dc="http://purl.org/dc/elements/1.1/"
   xmlns:cc="http://creativecommons.org/ns#"
   xmlns:rdf="http://www.w3.org/1999/02/22-rdf-syntax-ns#"
   xmlns:svg="http://www.w3.org/2000/svg"
   xmlns="http://www.w3.org/2000/svg"
   xmlns:sodipodi="http://sodipodi.sourceforge.net/DTD/sodipodi-0.dtd"
   xmlns:inkscape="http://www.inkscape.org/namespaces/inkscape"
   width="1100mm"
   height="300mm"
   viewBox="0 0 1100 300"
   version="1.1"
   id="svg3739"
   inkscape:version="0.92.4 (5da689c313, 2019-01-14)"
   sodipodi:docname="logo.svg"
   inkscape:export-filename="C:\Users\Sorin\Desktop\Proect\logo.png"
   inkscape:export-xdpi="17.940001"
   inkscape:export-ydpi="17.940001">
  <defs
     id="defs3733" />
  <sodipodi:namedview
     id="base"
     pagecolor="#ffffff"
     bordercolor="#666666"
     borderopacity="1.0"
     inkscape:pageopacity="0.0"
     inkscape:pageshadow="2"
     inkscape:zoom="0.24748737"
     inkscape:cx="1341.3718"
     inkscape:cy="724.64933"
     inkscape:document-units="mm"
     inkscape:current-layer="layer1"
     showgrid="false"
     inkscape:window-width="1920"
     inkscape:window-height="1027"
     inkscape:window-x="-8"
     inkscape:window-y="22"
     inkscape:window-maximized="1" />
  <metadata
     id="metadata3736">
    <rdf:RDF>
      <cc:Work
         rdf:about="">
        <dc:format>image/svg+xml</dc:format>
        <dc:type
           rdf:resource="http://purl.org/dc/dcmitype/StillImage" />
        <dc:title></dc:title>
      </cc:Work>
    </rdf:RDF>
  </metadata>
  <g
     inkscape:label="Layer 1"
     inkscape:groupmode="layer"
     id="layer1"
     transform="translate(0,3)">
    <g
       aria-label="Zilla"
       style="font-style:normal;font-weight:normal;font-size:10.58333302px;line-height:1.25;font-family:sans-serif;letter-spacing:0px;word-spacing:0px;fill:#4d4d4d;fill-opacity:1;stroke:none;stroke-width:0.26458332"
       id="text33">
      <path
         id="path4629"
         style="font-style:normal;font-variant:normal;font-weight:normal;font-stretch:normal;font-size:299.8611145px;line-height:1.25;font-family:'PT Mono';-inkscape-font-specification:'PT Mono, Normal';font-variant-ligatures:normal;font-variant-caps:normal;font-variant-numeric:normal;font-feature-settings:normal;text-align:start;letter-spacing:-19.84375px;writing-mode:lr-tb;text-anchor:start;fill:#000000;stroke-width:0.26458332"
         d="m 294.05802,75.477427 v 22.18986 h 118.44496 l -65.21876,90.125253 c 0.0655,0.0496 0.12848,0.10714 0.19069,0.16898 -0.0619,-0.057 -0.1247,-0.11335 -0.19069,-0.16898 l -36.77028,52.42574 c 0.24283,0.26839 0.40905,0.35338 0.60971,0.1235 0,-0.14941 0.40415,-0.63672 0.93792,-0.85783 0.53377,-0.22108 1.12461,-0.5797 1.8035,-1.37924 0.6789,-0.79952 2.33365,-2.64558 3.07925,-3.11749 1.3154,-0.83256 3.34709,-0.4579 4.0349,0.16455 0.7248,0.65593 1.75074,1.59201 1.09116,4.81876 l -0.15893,0.52097 0.42495,0.0709 c 0,0 0.69662,-0.5936 1.01211,-0.004 0.32885,0.61452 0.55493,0.49299 1.022,0.10535 0.30449,-0.25271 0.71919,-0.18446 1.16176,-0.12646 0.98923,0.12962 1.71019,-0.5373 1.4183,-1.00961 -0.11639,-0.1883 0.12449,-1.08429 0.24731,-1.47101 0.17737,-0.55893 2.33079,-1.2935 3.08295,-1.10956 0.52038,0.12728 1.75808,0.92021 1.8551,1.0398 0.34348,0.42341 0.1058,0.8483 0.9258,0.8483 0.58211,0 0.63542,0.98809 1.50051,-0.17983 1.15384,-1.55773 0.73133,-1.2582 0.27651,-2.13778 -0.41907,-0.81034 -0.17896,-2.08871 0.2666,-2.45854 0.2849,-0.23643 1.59824,-1.10092 1.99456,-0.99728 0.48358,0.12646 1.79726,-0.15361 2.35511,-0.75522 0.91606,-0.9879 4.17359,-0.83402 4.20748,0.35258 L 357.79985,211.17923 440.99011,97.967015 V 75.477432 Z M 949.77378,147.1442 q 12.89407,-7.49652 29.08657,-10.795 16.1925,-3.29847 31.78515,-3.29847 15.293,0 24.8885,4.79778 9.8954,4.79778 15.2929,12.59417 5.6974,7.49652 7.4966,17.39194 2.0991,9.59556 2.0991,19.49097 0,11.39472 -0.5998,24.28875 -0.5998,12.89403 -0.8996,25.78806 0,14.99305 1.7992,28.48681 h 20.0906 v 19.49098 h -39.8815 l -2.6987,-22.48961 h -1.4993 q -1.7992,2.69875 -5.3975,6.89681 -3.5984,4.19807 -9.5956,8.39611 -5.6974,3.89821 -14.0935,6.89681 -8.39607,2.99863 -19.79075,2.99863 -22.1897,0 -35.0838,-11.39473 -12.89399,-11.39473 -12.89399,-31.18556 0,-15.29292 6.59694,-25.4882 6.89684,-10.19527 19.49095,-15.59277 12.59419,-5.3975 30.28601,-6.29709 17.99174,-0.89958 40.18144,2.39889 1.4992,-13.79361 0.2998,-22.78944 -0.8996,-9.2957 -4.7978,-14.6932 -3.5983,-5.3975 -10.4952,-7.49653 -6.5968,-2.39888 -16.4923,-2.39888 -13.49376,0 -25.78805,3.89819 -12.29432,3.59833 -21.8898,7.49653 z m 44.07955,120.84403 q 8.39607,0 15.59287,-2.69875 7.1966,-2.69875 12.5941,-6.8968 5.3975,-4.19806 8.9959,-8.99584 3.5982,-5.09764 5.3975,-9.59555 v -20.99028 q -15.5929,-2.69875 -28.7868,-2.69875 -13.19386,0 -22.78935,2.99861 -9.59561,2.69875 -14.99311,8.69597 -5.3975,5.99723 -5.3975,15.59278 0,9.89542 6.59701,17.39195 6.89679,7.19666 22.78938,7.19666 z M 778.42326,75.477395 h 49.77696 V 235.00351 q 0,18.29153 5.99721,25.78806 6.29708,7.49651 18.29154,7.49651 8.39611,0 17.09209,-3.29845 8.69595,-3.29849 15.89262,-9.2957 l 10.795,15.89263 q -4.79777,4.19807 -10.49512,7.49652 -5.69738,3.29848 -11.69459,5.69738 -5.99723,2.09902 -11.99446,3.29848 -5.9972,1.19944 -11.09485,1.19944 -11.09485,0 -19.79083,-2.99863 -8.69599,-2.69875 -14.69322,-8.99581 -5.69735,-6.29711 -8.69595,-16.49237 -2.9986,-10.49514 -2.9986,-25.78806 V 95.568088 h -26.3878 z m -159.95578,0 h 49.77696 V 235.00351 q 0,18.29153 5.9972,25.78806 6.29709,7.49651 18.29155,7.49651 8.3961,0 17.09208,-3.29845 8.69596,-3.29849 15.89262,-9.2957 l 10.795,15.89263 q -4.79777,4.19807 -10.49512,7.49652 -5.69738,3.29848 -11.69458,5.69738 -5.99723,2.09902 -11.99446,3.29848 -5.99721,1.19944 -11.09485,1.19944 -11.09486,0 -19.79084,-2.99863 -8.69598,-2.69875 -14.69318,-8.99581 -5.69738,-6.29711 -8.69598,-16.49237 -2.99861,-10.49514 -2.99861,-25.78806 V 95.568088 H 618.46748 Z M 469.00684,285.38019 v -20.09071 h 52.17584 V 155.54031 h -52.17584 v -20.09069 h 76.16473 v 129.83986 h 50.97637 v 20.09071 z M 513.08643,92.869338 q 0,-8.096249 5.3975,-13.79361 5.3975,-5.997223 13.79362,-5.997223 8.69596,0 14.39334,5.997223 5.9972,5.697361 5.9972,13.79361 0,7.796392 -5.9972,13.193892 -5.69738,5.3975 -14.39334,5.3975 -8.39612,0 -13.79362,-5.3975 -5.3975,-5.3975 -5.3975,-13.193892 z M 363.44696,262.42547 c -0.61172,0.70421 -2.96312,3.3928 -3.38529,3.76655 -0.6803,0.60236 -3.80045,3.71026 -5.99448,5.82684 -4.01553,4.28408 -11.884,10.872 -18.29094,13.47558 l 105.21386,-0.11406 V 263.19051 Z M 35.110509,4.7215408 c -1.725649,0 -5.812806,3.8985679 -5.050337,4.8172769 0.3225,0.3885999 0.276966,0.5950123 -0.208256,0.9498123 -0.937419,0.68546 -0.531165,1.70004 0.868164,2.16886 0.828622,0.27762 1.272122,0.664936 1.347721,1.177706 0.06201,0.42025 0.26026,0.764294 0.440801,0.764294 0.180531,0 0.328144,0.259409 0.328144,0.576709 0,0.3173 0.405765,0.953164 0.901756,1.412834 0.49599,0.45967 0.804092,0.993838 0.684712,1.187008 -0.11939,0.19317 -0.03169,0.351399 0.194821,0.351399 0.263189,0 0.332116,0.31809 0.190685,0.8816 -0.163351,0.65082 -0.08127,0.882117 0.314193,0.882117 0.483169,0 0.693012,0.41662 0.577741,1.1467 -0.02299,0.14552 0.117063,0.264583 0.311092,0.264583 0.499711,0 0.415907,3.68918 -0.136424,5.997051 -0.59381,2.48123 -1.792142,4.832164 -2.591573,5.084445 -0.979961,0.309247 -10.700636,0.940075 -11.060308,0.717785 -0.17749,-0.109701 -0.322977,-0.0485 -0.322977,0.135909 0,0.55686 2.726531,1.467834 4.505151,1.505333 0.917709,0.01934 2.065678,0.155872 2.550749,0.303342 l 0.8816,0.268201 -0.911056,0.371035 c -0.816009,0.332351 -1.83134,0.319842 -4.027662,-0.04961 -1.699739,-0.285919 -3.027275,-0.689404 -3.202903,-0.973585 -0.362831,-0.587068 -0.849145,-0.299947 -1.717725,1.015442 -0.72685,1.100751 -0.855395,1.672534 -0.767395,3.402894 0.128299,2.521389 0.464109,2.828022 3.682979,3.363102 4.521639,0.75166 7.923998,2.06697 9.625769,3.721219 0.854639,0.830721 1.870919,1.575697 2.258261,1.655197 0.517409,0.106251 0.686486,0.398118 0.637686,1.100709 -0.03653,0.52597 0.07777,0.956529 0.253733,0.956529 0.175969,0 0.225845,0.245862 0.110585,0.546222 -0.119809,0.312219 0.06056,0.743492 0.421164,1.007173 0.37533,0.27441 0.542268,0.691431 0.412379,1.02991 -0.12007,0.312891 -0.05565,0.66934 0.143142,0.792202 0.19862,0.122848 0.28557,0.420441 0.193271,0.660939 -0.221369,0.576882 0.09528,0.97607 1.239718,1.565281 0.518779,0.267099 1.038781,0.867733 1.156002,1.334801 0.117229,0.467051 0.597754,0.99544 1.067633,1.174089 0.58433,0.22216 0.972807,0.764212 1.228865,1.71514 0.205912,0.764681 0.584586,1.471232 0.841812,1.569932 0.262638,0.10078 0.641146,1.224836 0.862994,2.563667 0.217292,1.31127 0.539221,2.476849 0.715719,2.590538 0.176501,0.113691 0.39646,1.139073 0.48886,2.278414 0.116329,1.434251 0.348054,2.17224 0.752925,2.398821 0.321619,0.17998 0.584978,0.718249 0.584978,1.196308 0,0.798592 0.584099,2.199402 1.093988,2.623614 0.116602,0.09702 0.317593,0.65246 0.447003,1.234549 0.12941,0.58208 0.280379,1.249367 0.335381,1.482598 0.05503,0.233219 0.372406,0.724564 0.704866,1.091922 0.332459,0.367371 0.658402,1.305845 0.724503,2.085144 0.148489,1.75138 0.423169,2.219502 1.301213,2.219502 0.516249,0 0.684712,0.24529 0.684712,0.996839 0,1.114031 1.033473,2.256155 2.872693,3.174484 1.03552,0.517059 1.169619,0.737785 1.070218,1.759066 -0.0625,0.642369 0.06372,1.381567 0.280088,1.642277 0.218178,0.262948 0.290788,0.881639 0.163295,1.389578 -0.154358,0.615022 -0.08658,0.915707 0.205674,0.915707 0.304491,0 0.363784,0.34438 0.197403,1.146699 -0.13077,0.63059 -0.380703,2.336806 -0.555003,3.792017 -0.174292,1.455211 -0.408757,3.387989 -0.521417,4.294829 -0.116351,0.93663 -0.05513,1.74157 0.14211,1.86345 0.190921,0.11802 0.255741,0.45365 0.143661,0.74569 -0.112069,0.29207 0.08166,0.84604 0.430464,1.23146 0.486172,0.53721 0.537258,0.79755 0.219109,1.11569 -0.51273,0.51272 -0.559765,5.84501 -0.06305,7.1515 0.217959,0.57325 0.509448,0.8289 0.765326,0.67076 0.295132,-0.1824 0.328047,-0.0624 0.114208,0.41961 -0.840481,1.89475 -0.285057,10.61779 0.711583,11.17555 0.35029,0.19604 0.458544,0.58287 0.318844,1.13946 -0.21165,0.84331 1.42411,4.60405 2.555399,5.87458 0.413959,0.46489 0.425027,0.61183 0.05478,0.73639 -0.37597,0.12648 -0.371118,0.26668 0.02687,0.74879 0.42097,0.50995 0.40895,0.6825 -0.08785,1.23145 -0.317809,0.35118 -0.579943,0.86421 -0.583943,1.13998 -0.0034,0.27576 -0.416274,0.89087 -0.917773,1.36684 -0.5015,0.47597 -1.061271,1.19035 -1.243852,1.5875 -0.698359,1.51915 -1.270682,2.31405 -2.181262,3.03031 -0.518551,0.40789 -0.942578,0.88732 -0.942578,1.06557 0,0.39276 -2.105366,2.44688 -2.507858,2.44688 -0.15743,0 -0.873543,0.63517 -1.591633,1.41128 -0.718084,0.77611 -1.46122,1.41077 -1.651579,1.41077 -0.19036,0 -0.839669,0.51611 -1.442289,1.1467 -0.602631,0.63059 -1.17529,1.08495 -1.272791,1.00975 -0.09748,-0.0752 -0.358439,0.2179 -0.579808,0.65165 -0.221372,0.43375 -0.835306,1.0509 -1.364777,1.37149 -1.40684,0.85184 -3.041761,5.56126 -2.773989,7.99124 0.16951,1.53827 0.03338,2.07975 -1.065051,4.23333 -0.69274,1.35819 -1.262073,2.72795 -1.266074,3.04375 -0.0036,0.31579 -0.232108,0.76168 -0.507979,0.99063 -0.27587,0.22896 -0.597715,1.00232 -0.714684,1.71876 -0.29255,1.79185 0.343826,6.40236 0.969965,7.02851 0.449069,0.44906 0.63805,0.34391 1.51412,-0.84232 0.55063,-0.74559 1.522429,-1.95177 2.159559,-2.67994 0.637124,-0.72816 1.160785,-1.60095 1.164785,-1.93994 0.0056,-0.53706 0.669335,-1.70059 2.390034,-4.19044 0.418701,-0.60586 0.440349,-0.5874 0.267169,0.22273 -1.013741,4.74225 -1.035161,4.9831 -0.646473,7.25227 0.496941,2.90111 0.85348,3.33106 2.763139,3.33106 2.113545,0 3.07439,-1.20867 2.940389,-3.69848 -0.11576,-2.15081 0.512723,-5.47554 1.034563,-5.47254 0.13244,8e-4 0.521597,0.68359 0.864547,1.51774 0.358849,0.87283 1.285897,2.07043 2.183845,2.82102 2.51856,2.10527 4.629978,1.65032 6.406327,-1.3808 0.96666,-1.64947 0.896575,-2.29447 -0.218075,-2.00298 -1.035648,0.27084 -1.940544,-1.87017 -1.224214,-2.89646 1.21136,-1.73551 2.534626,-4.40285 3.150195,-6.35 0.368041,-1.16417 0.966563,-2.45316 1.330151,-2.86442 0.467532,-0.52877 0.592359,-1.02107 0.426849,-1.68052 -0.26879,-1.07094 0.170866,-1.74071 1.615406,-2.46135 l 0.990637,-0.49403 -0.114205,1.23145 c -0.06295,0.67736 -0.28734,1.40458 -0.498679,1.61592 -0.211349,0.21134 -0.384474,0.64512 -0.384474,0.96429 0,0.31918 -0.29733,0.84968 -0.660939,1.17874 -0.605912,0.54835 -0.827405,1.81059 -0.810805,4.62659 0.0024,0.38805 -0.16433,1.73708 -0.37052,2.99826 -0.206179,1.26118 -0.414203,2.70916 -0.462502,3.21738 -0.04833,0.50823 -0.377651,1.36594 -0.73174,1.90634 -0.354079,0.5404 -0.661778,1.23607 -0.683678,1.54564 -0.02191,0.30957 -0.06705,0.89274 -0.100253,1.29605 -0.07256,0.88174 -1.87655,3.67489 -3.280421,5.07876 -0.55721,0.55721 -1.012857,1.26902 -1.012857,1.58181 0,0.3128 -0.257024,0.96049 -0.571023,1.43971 -0.459812,0.70176 -0.485857,0.97409 -0.133326,1.39888 0.324148,0.39055 0.330073,0.5271 0.02326,0.5271 -0.22788,0 -0.56914,0.44505 -0.75861,0.98857 -0.189479,0.54353 -0.816139,1.26656 -1.39268,1.60714 -0.726411,0.4291 -1.048514,0.89562 -1.048514,1.51877 0,0.4946 -0.396531,1.37069 -0.8816,1.94717 -0.485071,0.57646 -0.882118,1.31847 -0.882118,1.64847 0,0.33 -0.251775,0.95933 -0.559655,1.39889 -0.4471,0.63832 -0.472741,0.90399 -0.12764,1.31981 0.34494,0.41563 0.323596,0.64414 -0.104905,1.13171 -0.84156,0.95758 -2.029848,3.50238 -2.029848,4.34703 0,0.42139 -0.298559,1.26156 -0.663009,1.86655 -0.968441,1.60763 -1.241986,3.54235 -0.578776,4.09277 0.71959,0.5972 0.684559,0.84302 -0.357601,2.49391 -0.68177,1.08002 -0.855395,1.73746 -0.730705,2.77192 0.107789,0.89425 -0.0272,1.6292 -0.396875,2.15698 -0.514299,0.73425 -0.512246,0.83564 0.02479,1.22834 0.72966,0.53356 0.751557,1.36065 0.05168,1.94149 -0.32384,0.26879 -0.413817,0.59736 -0.228926,0.83664 0.167518,0.21679 0.494414,1.57941 0.726054,3.02772 0.283699,1.77384 0.703829,3.00384 1.287259,3.76876 0.476361,0.62453 0.866097,1.37506 0.866097,1.6676 0,0.29253 0.16519,0.63416 0.367419,0.75913 0.2022,0.12496 0.613241,0.84136 0.913641,1.59215 0.342379,0.85569 1.00879,1.63777 1.785419,2.09599 1.13607,0.67031 1.227857,0.84692 1.105876,2.12597 -0.118761,1.24537 -0.03292,1.42961 0.800984,1.72031 0.98385,0.34298 1.041696,0.72489 0.489376,3.2396 -0.228971,1.04245 -0.18628,1.12058 0.51418,0.93741 0.92396,-0.24164 1.222595,0.40286 1.596287,3.44475 0.142748,1.16194 0.56388,2.53995 0.935858,3.06234 0.627441,0.88114 0.638389,1.05892 0.15503,2.46187 -0.472009,1.37012 -0.465574,1.57355 0.06615,2.16111 0.468101,0.51723 0.50388,0.78078 0.177249,1.30379 -0.322289,0.51607 -0.300569,0.74592 0.10077,1.07901 0.615719,0.51099 0.350427,1.90354 -0.595313,3.12435 -0.358468,0.46273 -0.652156,1.11811 -0.652156,1.45625 0,0.33814 -0.205263,0.78489 -0.456303,0.99322 -0.495001,0.41079 -0.559683,3.34569 -0.09663,4.38217 0.43325,0.96975 0.009,1.60843 -0.946714,1.42573 -0.6247,-0.11943 -1.003149,0.0719 -1.429369,0.72245 -0.318881,0.48667 -0.866471,0.97602 -1.21698,1.08728 -0.350502,0.11123 -0.820698,0.68815 -1.044898,1.28209 -0.224189,0.59396 -0.616691,1.0519 -0.871781,1.01751 -1.290809,-0.17394 -2.052108,0.0611 -2.065507,0.6382 -0.01934,0.83301 -1.677024,2.6911 -3.004984,3.36775 -2.574292,1.31172 -6.541822,6.62646 -6.637321,8.89145 -0.0386,0.91493 0.09179,1.07387 0.963247,1.17356 0.554432,0.0634 1.488604,-0.0838 2.075844,-0.3271 0.886328,-0.36714 1.134618,-0.35637 1.461408,0.0615 0.287221,0.36726 1.299771,0.51435 3.744992,0.54416 4.136924,0.0504 8.170126,0.36502 11.641666,0.90848 1.534041,0.24013 8.091157,0.46635 15.604215,0.53845 11.417461,0.10956 13.089501,0.0563 14.063741,-0.44752 0.608129,-0.31448 2.038755,-0.63145 3.179133,-0.70434 1.140381,-0.0729 2.381393,-0.29713 2.757972,-0.49869 0.376581,-0.20153 1.07375,-0.36637 1.54926,-0.36637 1.126601,0 2.12734,-1.52021 2.066541,-3.13883 -0.02551,-0.67836 0.19223,-1.49696 0.48369,-1.81901 0.471725,-0.5211 0.471085,-0.63458 -0.0078,-1.03198 -0.592442,-0.49168 -0.720508,-1.61713 -0.21911,-1.92701 0.175541,-0.10851 0.237877,-0.80629 0.137978,-1.55081 -0.11453,-0.85386 0.01873,-1.74172 0.361217,-2.404 0.72136,-1.39502 1.15875,-5.24116 0.63303,-5.56607 -0.21624,-0.13364 -0.39432,-0.74977 -0.39532,-1.3689 -0.001,-0.61915 -0.317815,-1.60176 -0.703316,-2.18384 -0.38549,-0.58209 -0.702315,-1.37841 -0.703315,-1.76993 -0.0013,-0.39152 -0.383183,-1.27294 -0.849043,-1.95853 -0.644692,-0.94874 -0.762817,-1.39711 -0.494027,-1.87741 0.20846,-0.37253 0.244419,-1.30485 0.08785,-2.27531 -0.14588,-0.90417 -0.307017,-1.96115 -0.358118,-2.34921 -0.05109,-0.38807 0.211322,-1.37839 0.582911,-2.2009 0.4611,-1.02066 0.67541,-2.28818 0.67541,-3.992 0,-1.37307 0.163436,-2.80209 0.363286,-3.17552 0.19984,-0.3734 0.422976,-1.43279 0.495578,-2.35386 0.09875,-1.25328 0.379166,-1.9217 1.115174,-2.65772 0.91925,-0.91924 0.9553,-1.06254 0.54777,-2.18953 -0.34043,-0.94139 -0.34345,-1.35455 -0.0124,-1.88464 0.24705,-0.3956 0.3096,-0.95612 0.14986,-1.34307 -0.1508,-0.36526 -0.31612,-1.10043 -0.36742,-1.63401 -0.11111,-1.15571 0.66975,-1.32282 1.2361,-0.26458 0.20768,0.38807 0.55186,0.70538 0.76481,0.70538 0.49556,0 1.70429,1.38442 1.70429,1.95182 0,0.45519 2.89974,2.9869 3.42098,2.9869 0.16676,0 0.57465,0.31784 0.90692,0.7059 0.33226,0.38807 0.89168,0.70538 1.24282,0.70538 0.35116,0 0.78925,0.1454 0.97359,0.32298 0.18432,0.17759 0.72271,0.3759 1.1963,0.4408 0.63702,0.0874 0.93956,0.42195 1.16221,1.28571 0.30472,1.18205 2.60545,3.94704 3.28559,3.94704 0.20344,2.7e-4 1.00431,0.61039 1.77973,1.35548 0.77542,0.74509 1.79949,1.45492 2.27583,1.57716 0.47634,0.12226 1.18343,0.70254 1.57148,1.28984 0.38806,0.58732 0.9435,1.06722 1.23455,1.07022 0.61314,0.003 2.33045,1.02571 3.35174,1.99678 0.38805,0.36899 1.37989,0.8704 2.20451,1.11466 0.82461,0.24426 1.49965,0.59666 1.49965,0.7829 0,0.18624 0.46652,0.33848 1.03715,0.33848 0.57064,0 1.12946,0.14899 1.24178,0.33073 0.28463,0.46056 2.09633,1.33094 3.33727,1.60352 0.57063,0.12533 1.22968,0.45965 1.46451,0.74259 0.23482,0.28299 0.69266,0.43006 1.01699,0.32711 0.38051,-0.12075 1.17852,0.37685 2.24947,1.40301 0.91286,0.87467 1.87553,1.59061 2.13941,1.59061 0.26388,0 0.66926,0.22847 0.90124,0.50797 0.23197,0.2795 0.62822,0.4295 0.88004,0.3328 0.25182,-0.0966 0.55274,0.0714 0.6687,0.37362 0.11596,0.30221 0.51474,0.54932 0.88625,0.54932 0.3788,0 0.75643,0.30973 0.85989,0.70538 0.10148,0.38807 0.42503,0.70591 0.71882,0.70591 0.31644,0 0.63554,0.467 0.7829,1.14618 0.1368,0.63061 0.42007,1.25574 0.62994,1.38906 0.22952,0.14582 -0.35024,0.90657 -1.45521,1.90892 -1.21196,1.09945 -1.8371,1.94633 -1.8371,2.48875 0,0.62357 -0.44734,1.075 -1.85208,1.86965 -2.47824,1.40192 -4.45232,3.38138 -5.26738,5.28185 -0.78372,1.82737 -0.63813,2.49597 0.54415,2.49597 0.4704,0 0.95306,0.25411 1.07229,0.56481 0.17934,0.46741 0.60112,0.52922 2.44223,0.35864 1.22394,-0.11337 2.76761,-0.0501 3.43079,0.14005 0.70719,0.20283 9.21342,0.37526 20.57136,0.41754 l 19.36523,0.0724 0.66094,-0.81598 c 0.36332,-0.44865 0.66042,-1.28494 0.66042,-1.8583 0,-0.57332 0.16464,-1.34998 0.36587,-1.72598 0.20122,-0.376 0.37396,-1.74966 0.38396,-3.05303 0.0275,-3.57642 1.17265,-5.18567 2.75021,-3.86437 0.30633,0.2566 1.27094,0.68347 2.14406,0.94877 0.87313,0.2653 1.90086,0.69043 2.28358,0.94464 0.38272,0.25429 0.95333,0.46252 1.26814,0.46252 0.31481,0 0.8596,0.31732 1.21078,0.70538 0.35119,0.38807 0.92123,0.70591 1.26659,0.70591 0.34535,0 1.07489,0.18301 1.62109,0.40669 0.54621,0.22368 1.30747,0.46609 1.69137,0.53898 0.38391,0.0729 0.85177,0.28697 1.04025,0.47543 0.18848,0.18849 0.53799,0.34261 0.77669,0.34261 0.2387,0 1.4372,0.46191 2.6634,1.02629 1.22622,0.56436 2.94422,1.21063 3.81734,1.43661 0.87313,0.2259 2.37237,0.79621 3.3321,1.26709 0.95971,0.47088 1.94849,0.8563 2.19677,0.8563 0.24823,0 0.97081,0.31649 1.6061,0.70382 0.63527,0.38735 1.49294,0.70591 1.90582,0.70591 0.41286,0 1.34419,0.24931 2.06965,0.55242 0.72544,0.30311 1.55858,0.45916 1.85156,0.34674 0.293,-0.11245 0.7112,-0.0617 0.92913,0.11265 0.21797,0.17439 0.95182,0.39503 1.63092,0.49041 0.67911,0.0954 2.10786,0.4949 3.175,0.88781 1.06715,0.39291 2.57511,0.79785 3.35122,0.89969 0.7761,0.10184 2.03718,0.37166 2.80188,0.59997 0.76472,0.22712 1.90323,0.33221 2.53008,0.23048 0.74311,-0.12057 1.19959,-0.0285 1.31207,0.26458 0.0949,0.24728 1.02031,0.63304 2.05621,0.8573 1.03592,0.22424 2.20096,0.49543 2.589,0.60307 0.38806,0.10763 1.34053,0.27757 2.11666,0.37774 0.77613,0.1002 1.75729,0.3501 2.18075,0.55502 0.42349,0.20481 0.97944,0.2926 1.23505,0.19481 0.76192,-0.29149 13.23605,0.3815 14.7805,0.79738 1.38729,0.37354 6.6158,0.69556 11.26029,0.69556 1.26117,-2.6e-4 3.16617,0.21503 4.23334,0.47853 v 0 c 1.51937,0.37512 5.91939,0.47103 20.28454,0.44233 l 18.34462,-0.0367 2.19417,-0.96996 c 1.20681,-0.53356 2.55587,-0.96956 2.99828,-0.97255 0.44241,0 1.28082,-0.31782 1.86293,-0.70332 0.58209,-0.3855 1.34141,-0.70032 1.68722,-0.70331 1.01206,-0.004 6.3599,-2.14847 7.15513,-2.8696 0.40055,-0.36322 0.95602,-0.66418 1.23455,-0.66817 0.27855,-0.004 0.9035,-0.31819 1.38856,-0.69763 0.48506,-0.37944 1.01354,-0.69363 1.17459,-0.69765 0.77909,-0.0209 10.3986,-7.66911 13.92679,-11.07271 2.19403,-2.11659 4.54575,-4.34102 5.22605,-4.94337 0.68032,-0.6023 1.90135,-1.96175 2.71352,-3.02099 0.81216,-1.05924 2.06999,-2.56903 2.79519,-3.35484 0.72517,-0.78581 1.31992,-1.53907 1.32291,-1.6738 0.003,-0.1347 0.56846,-0.84907 1.25728,-1.5875 0.68887,-0.7384 1.46298,-1.8316 1.72082,-2.42982 0.47125,-1.09318 2.28399,-3.61618 3.65768,-5.09065 1.41531,-1.51919 3.40519,-6.05559 3.44577,-7.85637 0.0309,-1.3683 0.24141,-1.90231 1.11363,-2.82256 1.01735,-1.0733 1.25561,-1.6138 2.21073,-5.0152 0.27316,-0.97367 0.35168,-5.51246 0.25268,-14.64045 -0.16179,-14.91459 -0.48787,-17.91008 -2.12699,-19.54919 -0.51514,-0.51517 -1.0387,-1.36773 -1.16377,-1.89446 -0.12509,-0.52674 -0.25704,-0.9007 -0.69762,-1.87084 -1.15798,1.54969 -10.17916,13.0886 -13.58234,17.40145 -0.54824,0.88501 -0.56237,1.90123 -0.6695,3.43516 -0.15721,2.35024 -0.26937,2.68322 -1.02992,3.06079 -1.15678,0.5743 -1.55268,1.36917 -1.10175,2.21175 0.52533,0.98157 0.46165,1.60007 -0.34157,3.30884 -0.82183,1.74835 -2.5658,3.77445 -3.2489,3.77445 -0.25879,0 -0.84177,0.25977 -1.295,0.57723 -0.68668,0.48092 -0.79391,0.79973 -0.64493,1.91047 0.15195,1.13279 0.0257,1.47917 -0.8382,2.30684 -0.55917,0.53573 -1.11582,1.28696 -1.23714,1.66915 -0.27495,0.86627 -1.90126,2.32914 -2.60963,2.34714 -0.29105,0.007 -0.98232,0.31202 -1.53583,0.67696 -0.89054,0.58714 -1.11353,0.60739 -1.93995,0.17622 -0.51364,-0.26802 -1.21177,-0.48938 -1.55131,-0.48938 -0.41875,-0.002 -0.61753,-0.27939 -0.61753,-0.86351 0,-1.27537 -0.67117,-1.46139 -1.61179,-0.447 -0.55785,0.60161 -1.06826,0.83444 -1.55184,0.70797 -0.39632,-0.10364 -0.95379,0.005 -1.2387,0.24132 -0.44556,0.36984 -0.44955,0.56167 -0.0305,1.37201 0.45482,0.87958 0.40505,1.05245 -0.74879,2.61018 -0.86509,1.16792 -1.48548,1.66812 -2.06759,1.66812 -0.82,0 -2.63771,-0.66128 -2.98119,-1.08469 -0.097,-0.11959 -0.60204,-0.32178 -1.12242,-0.44907 -0.75216,-0.18394 -0.99205,-0.0871 -1.16943,0.4718 -0.12282,0.38673 -0.12777,0.85712 -0.0114,1.04542 0.29189,0.47231 -2.50772,1.84786 -3.49694,1.71824 -0.4426,-0.058 -1.05357,0.10127 -1.35806,0.35398 -0.46707,0.38764 -0.61476,0.34581 -0.94361,-0.26871 -0.31549,-0.58947 -0.73218,-0.72864 -2.1854,-0.72864 h -1.79523 l 0.23408,-1.14618 c 0.65958,-3.22675 0.6473,-3.95619 -0.0775,-4.61213 -0.68781,-0.62245 -0.74908,-0.61603 -2.06449,0.21653 -0.74559,0.47191 -1.91111,1.51197 -2.59,2.31149 -0.6789,0.79953 -1.67077,1.63462 -2.20454,1.8557 -0.53377,0.22111 -0.97099,0.52445 -0.97099,0.67386 0,0.14944 -0.66762,0.53885 -1.48416,0.86558 -1.41316,0.56542 -1.50579,0.5628 -1.92391,-0.0501 -1.50527,-2.20652 -2.10701,-2.91795 -2.47272,-2.92695 -0.22712,-0.005 -0.52607,-0.52547 -0.66455,-1.156 -0.36058,-1.64169 -1.6374,-4.14549 -2.11408,-4.14549 -0.22291,0 -0.68781,0.62619 -1.03301,1.39165 -0.34518,0.76544 -1.00409,1.74562 -1.46452,2.17816 l -0.83714,0.78652 -0.0408,-1.2082 c -0.0222,-0.66443 -0.0122,-1.48564 0.0222,-1.82521 0.12872,-1.2654 -1.33938,-0.57416 -3.54968,1.67121 -2.24629,2.28193 -3.49017,2.83495 -4.08707,1.81643 -0.15518,-0.26477 -0.78195,-0.73698 -1.39269,-1.04903 -0.69043,-0.35276 -1.40422,-1.17468 -1.88775,-2.17351 -0.75779,-1.56538 -0.81087,-1.60065 -2.06499,-1.37046 -0.70784,0.12991 -1.33985,0.37226 -1.40454,0.53847 -0.0647,0.16621 -0.63233,0.30231 -1.26143,0.30231 -1.55861,0 -2.62311,-1.18605 -2.69391,-3.00085 -0.0785,-2.01279 0.32552,-6.01123 0.70954,-7.02128 0.39764,-1.04589 -0.30094,-1.79168 -1.36271,-1.45469 -0.75983,0.24116 -3.95494,3.58296 -5.06998,5.30303 -0.37735,0.58209 -0.57859,0.74102 -0.44751,0.35295 0.13107,-0.38803 0.55335,-1.63862 0.93842,-2.77916 0.72641,-2.15141 0.77057,-4.12849 0.0972,-4.34908 -0.21373,-0.07 -1.0073,0.43922 -1.76372,1.13223 -0.75639,0.69301 -2.08949,1.65272 -2.96259,2.13217 -2.06536,1.13414 -2.80683,1.61269 -3.66337,2.36471 -0.73848,0.64842 -0.85405,0.68586 -2.44014,0.79633 -0.762,0.0531 -1.10548,-0.15707 -1.49966,-0.91932 -0.28115,-0.54365 -0.51107,-1.17046 -0.51107,-1.39268 0,-0.22222 -0.3283,-0.86517 -0.72967,-1.42885 l -0.72967,-1.02475 -1.58596,1.09089 c -1.57472,1.08344 -2.38795,1.16018 -3.64628,0.34365 -0.43971,-0.28533 -0.40806,-0.43252 0.20929,-0.97358 0.39986,-0.35048 0.92165,-1.00418 1.15961,-1.45314 0.54073,-1.02029 -0.0108,-1.82987 -1.24695,-1.82987 -0.4613,0 -0.84722,-0.0394 -0.85783,-0.0879 -0.0106,-0.0485 -0.23665,-1.35819 -0.50229,-2.91041 -0.71072,-4.15275 -1.04317,-5.44466 -1.92082,-7.46311 -0.74184,-1.70611 -1.76403,-2.51487 -2.55799,-2.02417 -0.16034,0.0991 -0.29144,1.46199 -0.29144,3.02876 0,3.34193 -0.49302,5.2536 -1.63039,6.32209 -0.73324,0.68884 -0.84465,0.70824 -1.04645,0.18242 -0.1242,-0.32369 -0.0594,-1.25997 0.14367,-2.08101 0.20309,-0.82104 0.47979,-2.6437 0.61494,-4.0504 0.28382,-2.95407 0.0511,-3.13923 -2.10529,-1.67587 -0.71482,0.48507 -1.47209,0.88212 -1.68312,0.88212 -0.4971,0 -2.71417,1.32647 -3.7207,2.22622 -0.68969,0.61655 -0.81087,0.63376 -0.99994,0.14108 -0.24815,-0.64672 1.36758,-4.49811 2.56109,-6.10506 0.44592,-0.6004 0.81081,-1.27491 0.81081,-1.49913 0,-0.48032 -1.16541,-0.52821 -2.64843,-0.10904 -1.50738,0.42606 -1.93786,0.15993 -1.93786,-1.19786 0,-1.1686 0.27385,-1.96067 1.97922,-5.72316 0.84211,-1.85798 1.08635,-3.25562 0.56893,-3.25562 -0.29051,0 -3.26342,2.1259 -5.4348,3.88607 -0.71456,0.57924 -1.48016,1.05317 -1.7012,1.05317 -0.81592,0 -3.58166,1.88359 -4.46381,3.04012 -1.08455,1.42194 -1.53167,1.5101 -1.53167,0.30231 0,-0.62546 -0.26281,-0.99031 -0.88212,-1.22577 -1.10022,-0.4183 -1.09826,-0.64055 0.0161,-2.28254 0.49366,-0.72747 0.85627,-1.58342 0.80616,-1.9017 -0.0501,-0.31827 0.32427,-1.45156 0.83201,-2.51871 0.99573,-2.09297 2.12741,-7.31884 1.64899,-7.61452 -0.70631,-0.43652 -3.13325,0.40254 -5.29789,1.83141 -1.29135,0.85242 -2.43914,1.54978 -2.55074,1.54978 -0.11158,0 -1.07159,0.55545 -2.1332,1.23455 -1.06159,0.6791 -2.1563,1.23507 -2.43293,1.23507 -0.27659,0 -0.68641,0.22084 -0.91053,0.49092 -0.22416,0.27007 -0.71467,0.57111 -1.08985,0.66921 -0.62762,0.16413 -0.61484,0.0794 0.16071,-1.06195 1.04833,-1.54279 0.83957,-2.33597 -0.53539,-2.03398 l -0.99009,0.21755 -0.0119,-3.09231 c -0.0114,-3.04223 0.0103,-3.12124 1.33223,-4.87361 0.73898,-0.97969 2.03581,-2.81299 2.882,-4.07417 0.84617,-1.26118 1.88712,-2.68993 2.31304,-3.175 2.03822,-2.32136 3.25747,-4.93923 2.30063,-4.93923 -0.45828,0 -5.47121,2.87323 -6.62802,3.79874 -0.54981,0.43987 -2.19057,1.57745 -3.64577,2.528 -2.845,1.85841 -3.48811,1.73422 -2.18333,-0.42116 1.24577,-2.05791 1.28002,-2.64076 0.16898,-2.88199 -1.78818,-0.38826 -4.84806,0.70463 -7.13651,2.54868 -1.16448,0.93835 -2.53507,1.92938 -3.0453,2.20245 -0.83951,0.44929 -0.97585,0.43032 -1.43815,-0.19947 -0.57263,-0.7801 -1.2509,-0.0508 6.55257,-7.04608 3.74807,-3.35988 6.72879,-6.73027 6.72879,-7.60781 0,-0.55908 -1.37421,-0.17667 -4.2075,1.17048 -2.39005,1.13641 -7.08122,1.82901 -7.08122,1.04541 0,-0.1961 0.67396,-1.10961 1.49758,-2.02985 1.62331,-1.8137 3.49986,-4.85357 3.69384,-5.98362 0.37752,-2.19948 0.64759,-6.74829 0.41651,-7.01507 -0.51673,-0.59656 -3.23626,0.86818 -4.69119,2.52646 -3.66435,4.17645 -7.74865,7.43377 -12.45764,9.93531 -2.84334,1.51049 -3.2696,1.35319 -2.88716,-1.06608 0.16101,-1.01857 0.45721,-2.01628 0.65784,-2.21692 0.64009,-0.64008 0.41823,-1.92292 -0.3762,-2.17506 -0.92508,-0.29362 -0.66741,-0.54282 1.96577,-1.90066 1.56233,-0.80565 2.58298,-1.08676 3.94859,-1.08676 2.18466,0 3.75094,-0.8102 5.30666,-2.74608 0.97622,-1.21479 6.12902,-5.01469 6.8001,-5.01469 0.57627,0 2.92689,-2.37714 2.70526,-2.73575 -0.41003,-0.66344 -10.15234,-0.77717 -12.71189,-0.14831 -0.79892,0.19629 -2.40512,0.54724 -3.56929,0.77928 -1.16416,0.23205 -3.24079,0.71298 -4.6147,1.06919 -2.36225,0.61245 -4.0287,0.59679 -4.0287,-0.0382 0,-0.7135 2.68019,-2.36879 5.35575,-3.30781 4.03242,-1.41523 8.0676,-3.27306 8.98912,-4.13877 0.42237,-0.3968 0.95031,-1.16188 1.17305,-1.69963 0.22275,-0.53775 0.75913,-1.13905 1.19218,-1.33636 0.84871,-0.3867 2.69285,-3.60485 2.69285,-4.69945 0,-0.6149 -0.21939,-0.65337 -2.7342,-0.47956 -4.0454,0.27959 -4.64581,0.42076 -5.75727,1.35599 -1.07089,0.9011 -3.25433,1.51555 -7.03058,1.97766 -1.26118,0.15434 -3.48402,0.62064 -4.93923,1.03663 -2.27022,0.64898 -2.83364,0.69613 -3.96875,0.33073 -0.7276,-0.23423 -1.31648,-0.5988 -1.30948,-0.81029 0.007,-0.21147 0.52339,-0.97776 1.1467,-1.70274 1.22073,-1.41988 8.20878,-5.20847 9.60716,-5.20847 0.74807,0 3.1052,-1.57167 5.28444,-3.52381 0.58209,-0.52143 1.80167,-1.37121 2.71043,-1.88826 0.90876,-0.51706 1.75233,-1.25582 1.87482,-1.64176 0.1225,-0.38595 0.8403,-1.48263 1.59473,-2.43706 1.31503,-1.66364 3.0516,-4.86968 2.77296,-5.11958 -0.0734,-0.0658 -1.56259,0.39683 -3.30884,1.02836 -5.32055,1.92414 -8.40223,2.61542 -8.79895,1.97352 -0.30595,-0.49505 3.27281,-4.52482 5.80068,-6.5319 1.06715,-0.8473 2.64108,-2.1924 3.49798,-2.98896 0.8569,-0.79658 1.66068,-1.44798 1.78594,-1.44798 0.12525,0 0.59262,-0.49376 1.03869,-1.09709 l 0.81081,-1.09709 -5.22966,0.26148 c -4.62233,0.23107 -5.47751,0.37368 -7.35924,1.2268 -5.24836,2.37945 -5.91856,2.17574 -4.09122,-1.24437 0.66666,-1.24775 1.11529,-2.36511 0.99735,-2.48305 -0.23164,-0.23166 -2.82559,-0.60821 -3.97443,-0.57671 -2.22194,0.0608 -2.97123,0.37496 -5.08083,2.13062 -2.55957,2.13014 -4.95543,3.72054 -5.21467,3.46129 -0.096,-0.096 0.93724,-1.08261 2.29599,-2.19263 2.58855,-2.11471 2.90173,-2.97553 1.08262,-2.97553 -1.42797,0 -1.27243,-0.49194 0.47852,-1.51206 1.4746,-0.8591 2.72933,-1.170687 5.94434,-1.475876 0.89247,-0.08471 2.0372,-0.342689 2.54403,-0.573609 0.87384,-0.39815 2.7125,-2.744041 2.7125,-3.460771 0,-0.375618 -1.98042,-1.444355 -2.67632,-1.444355 -0.62333,0 -0.96274,-1.249114 -0.54932,-2.021584 0.43967,-0.821549 3.13521,-3.058466 6.04769,-5.018296 1.26118,-0.848672 3.16618,-2.270892 4.23333,-3.160533 1.06715,-0.88964 2.25778,-1.793314 2.64583,-2.008145 0.93743,-0.518951 1.08115,-1.450538 0.3483,-2.260327 -0.71544,-0.790549 -3.40499,-1.756717 -4.90874,-1.763715 -3.06487,-0.01363 -3.47522,-0.987092 -0.95446,-2.264463 0.94425,-0.478481 2.8674,-1.73522 4.27364,-2.793111 1.40624,-1.057899 3.25511,-2.282727 4.10879,-2.721798 4.09443,-2.10584 2.59321,-3.012509 -5.1816,-3.129007 -2.60756,-0.0391 -5.08617,-0.0783 -5.50767,-0.0863 -0.80329,-0.01556 -4.66619,2.55734 -5.15731,3.434931 -0.15672,0.280041 -0.49949,0.509014 -0.76171,0.509014 -0.26222,0 -1.1766,0.709604 -2.03192,1.577165 -0.85531,0.867569 -2.12273,1.81497 -2.81636,2.104779 -0.69364,0.28983 -1.90372,1.256824 -2.68924,2.149224 -1.28987,1.465331 -1.55883,1.611696 -2.77503,1.511535 l -1.34669,-0.110588 -0.17621,-2.2934 c -0.17426,-2.26536 -0.18902,-2.293022 -1.23455,-2.321822 -2.02573,-0.0557 -1.99956,-0.02869 -1.75752,-1.823143 0.27612,-2.047031 1.4943,-5.944741 2.23294,-7.14375 0.29882,-0.485071 1.22699,-1.70108 2.06241,-2.702161 0.83541,-1.00109 1.51877,-2.047549 1.51877,-2.325441 0,-0.688628 -2.7145,-1.49824 -3.32487,-0.991669 -0.3188,0.264628 -0.77867,0.260461 -1.56734,-0.01447 -0.61397,-0.214018 -1.74885,-0.32898 -2.52181,-0.25528 -0.77297,0.07371 -1.40508,0.01347 -1.40508,-0.133842 0,-0.14731 0.53829,-1.23897 1.19631,-2.426208 1.17796,-2.125332 3.5223,-4.41212 5.65185,-5.513359 l 1.05678,-0.546737 -1.03818,-0.828374 -1.03869,-0.827857 4.9351,-4.835364 c 4.17655,-4.092149 4.8163,-4.855887 4.15995,-4.968687 -0.42655,-0.07331 -1.06173,0.01966 -1.41129,0.206706 -0.34955,0.187068 -1.42919,0.456234 -2.39933,0.597895 -0.97014,0.14166 -2.35011,0.552871 -3.06648,0.913641 -0.71639,0.360777 -1.50997,0.584427 -1.76372,0.497125 -0.25376,-0.0873 -1.09664,0.232542 -1.87275,0.710552 -2.08853,1.286348 -6.26166,3.335197 -6.79287,3.335197 -1.23918,0 -4.01253,1.90006 -5.76347,3.948078 -2.26564,2.65004 -2.57693,2.901495 -2.72903,2.206585 -0.14201,-0.648721 1.34631,-3.252824 2.40864,-4.214214 0.76496,-0.69229 1.95132,-2.645833 1.60661,-2.645833 -0.0968,0 -0.85535,0.308557 -1.68516,0.685747 -0.82981,0.377179 -1.92285,0.771136 -2.42931,0.875916 -0.54629,0.113009 -2.88354,2.083152 -5.74642,4.843632 -5.44521,5.25046 -7.44608,6.862109 -7.80314,6.28437 -0.27611,-0.446749 2.23048,-5.574255 3.63388,-7.433654 1.27882,-1.694331 7.53703,-10.274292 9.90792,-13.58315 1.04167,-1.453761 1.82152,-2.715681 1.73272,-2.80448 -0.0888,-0.08881 -1.57626,0.551262 -3.30523,1.422651 -1.72897,0.8714 -3.26254,1.586566 -3.40806,1.589567 -0.14552,0.0029 -0.26458,-0.312166 -0.26458,-0.700215 0,-1.152011 -0.89378,-0.81761 -3.06648,1.146699 -2.67943,2.422422 -4.59602,3.893902 -6.05028,4.645713 -2.12152,1.096748 -1.92842,0.264448 0.84336,-3.631822 0.87994,-1.236929 1.52069,-2.328174 1.42369,-2.425173 -0.097,-0.097 -1.01655,0.372094 -2.04329,1.042313 -1.02674,0.67021 -3.05717,1.95589 -4.51238,2.85719 -1.45522,0.90129 -3.91618,2.594824 -5.46841,3.763595 -1.55223,1.168778 -3.03714,2.125697 -3.30005,2.125967 -0.34446,5.29e-4 -0.44075,-0.392317 -0.34365,-1.410767 0.0918,-0.962258 -0.005,-1.410766 -0.30386,-1.410766 -0.63328,0 -4.29043,3.754467 -5.85442,6.010487 -3.27532,4.724609 -4.54823,6.391158 -4.73769,6.201687 -0.2931,-0.293089 2.95883,-5.036989 3.62923,-5.294249 0.66332,-0.254539 0.48948,-1.097092 -0.22634,-1.097092 -1.00556,0 -0.65126,-1.13834 1.24798,-4.00854 1.0714,-1.619129 1.85985,-3.086336 1.75235,-3.260265 -0.1075,-0.17394 -0.66236,-0.316262 -1.233,-0.316262 -0.96441,0 -1.03714,-0.09353 -1.03714,-1.327565 0,-0.932871 0.36695,-1.872747 1.23454,-3.161049 0.90474,-1.343469 1.23455,-2.214009 1.23455,-3.258198 0,-0.78377 -0.12856,-1.425236 -0.28628,-1.425236 -0.15771,0 -1.10961,0.397047 -2.11512,0.882116 -1.0055,0.485071 -1.97585,0.881599 -2.15594,0.881599 -0.18009,0 -0.8126,0.408459 -1.4056,0.907439 -1.29373,1.088599 -1.79782,0.877509 -1.79782,-0.751893 0,-0.66765 -0.12773,-1.213879 -0.28371,-1.213879 -0.52379,0 -2.39153,2.273824 -3.76721,4.586285 -1.16053,1.95082 -7.48233,9.108868 -8.36021,9.466087 -0.57269,0.23304 -0.26885,-1.039738 0.77566,-3.250446 0.5982,-1.266092 1.91145,-3.135288 2.99827,-4.266406 1.06375,-1.107101 1.93425,-2.138407 1.93425,-2.292368 0,-0.153951 -0.33821,-0.368792 -0.75189,-0.476973 -0.74956,-0.196011 -0.77139,-0.537921 -0.13229,-2.090311 0.29836,-0.72472 -0.50839,-0.841071 -1.63866,-0.236162 -0.97403,0.52128 -1.1324,0.241522 -0.34314,-0.605647 1.42321,-1.527641 1.83842,-2.950726 0.86093,-2.950726 -1.45518,0 -3.76277,1.583598 -5.46581,3.750678 -0.97118,1.2358 -1.909868,2.246889 -2.086178,2.246889 -0.176321,0 -0.32091,-0.397047 -0.32091,-0.882115 0,-0.485072 -0.1342,-0.882119 -0.298691,-0.882119 -0.683768,0 -4.289592,4.258062 -5.298901,6.257499 -1.216458,2.409802 -1.632431,2.829653 -1.95957,1.977142 -0.247629,-0.645319 0.224602,-2.376707 1.242301,-4.553728 0.81516,-1.743739 0.842674,-2.269628 0.117821,-2.269628 -0.409318,0 -0.490667,-0.206221 -0.313158,-0.79375 0.1319,-0.43657 0.380717,-0.944811 0.55294,-1.12913 0.17222,-0.18433 0.313158,-0.537919 0.313158,-0.785998 0,-0.584181 -1.500381,0.0321 -2.961061,1.215946 -0.716838,0.58098 -1.132033,0.715915 -1.393713,0.454236 -0.727168,-0.727181 -1.289154,-0.349644 -2.203482,1.479495 -0.937519,1.87552 -2.484647,3.792535 -3.060795,3.792535 -0.520571,0 0.118364,-2.236965 0.874366,-3.060796 0.387429,-0.422201 0.612981,-0.915297 0.501261,-1.096057 -0.111721,-0.180769 -0.05962,-0.827411 0.115239,-1.437122 0.359868,-1.25477 0.366628,-1.252643 -2.088764,-0.726053 -1.119489,0.24008 -1.919877,0.634632 -2.146638,1.058333 -0.19884,0.371549 -0.653828,0.67541 -1.011307,0.67541 -0.35747,0 -0.835242,0.22344 -1.06195,0.496612 -0.67651,0.815139 -2.659303,1.604132 -3.487642,1.387512 -1.15997,-0.303339 -0.936398,-1.331891 0.548801,-2.52336 l 1.321885,-1.0604 -0.880568,-0.34675 c -0.484421,-0.19076 -2.0206,-0.770168 -3.413171,-1.287828 -3.16861,-1.177859 -3.668043,-1.692225 -2.430343,-2.503207 0.498062,-0.326329 0.905372,-0.726011 0.905372,-0.887801 0,-0.161798 -0.884994,-0.573146 -1.966804,-0.914154 -1.27712,-0.402582 -2.545101,-1.155547 -3.615801,-2.147158 -0.90697,-0.83997 -2.085898,-1.763973 -2.619478,-2.053103 -0.553241,-0.299781 -0.969968,-0.824958 -0.969968,-1.222148 0,-0.38307 -0.233243,-0.696598 -0.518313,-0.696598 -0.86496,0 -3.318783,-1.427666 -3.534151,-2.056206 -0.52569,-1.53411 -12.688279,-7.467748 -15.308109,-7.468278 -0.807831,-1.7e-4 -1.258504,-0.3688 -5.718513,-4.6746493 -0.954622,-0.92163 -1.980782,-1.6758666 -2.280484,-1.6758666 z M 44.58745,15.657824 c 1.123781,0 2.110142,0.796905 1.95802,1.581815 -0.18465,0.95274 -0.764106,1.005012 -1.830895,0.165882 -1.164339,-0.91587 -1.224873,-1.747697 -0.127125,-1.747697 z m 122.12846,59.517295 -1.23455,1.10381 c -0.6791,0.60714 -1.51455,1.106493 -1.85673,1.109493 -0.34218,0.0031 -0.89815,0.152675 -1.23507,0.332796 -0.33692,0.180131 -1.32673,0.626816 -2.19986,0.992187 -0.87312,0.365361 -2.3816,0.923827 -3.35174,1.241269 l -1.76372,0.577226 1.07332,-0.969449 c 1.25526,-1.133743 7.34532,-3.887219 9.25216,-4.183208 z m 136.40356,81.392451 c -1.12622,-0.0121 -2.44956,0.0996 -3.71139,0.34623 -1.6538,0.32328 -3.00739,0.4209 -3.35124,0.24185 -1.05359,-0.54858 -5.80776,-0.76662 -7.8088,-0.35812 -1.06715,0.21786 -3.4484,0.45273 -5.29167,0.52193 -4.38589,0.16475 -9.34585,0.706 -11.1125,1.21233 -1.85174,0.53071 -4.36332,1.01218 -7.40833,1.42058 -5.41817,0.72669 -6.73862,0.95251 -7.58455,1.29657 -0.48506,0.19729 -1.7554,0.46652 -2.82257,0.59841 -1.06715,0.13189 -2.41621,0.38189 -2.99826,0.55552 -0.58209,0.17363 -1.77274,0.38999 -2.64584,0.48059 -3.43802,0.35659 -8.46666,2.51656 -8.46666,3.63699 0,0.30111 0.42034,0.28324 1.58644,-0.0677 1.49262,-0.44921 5.93087,-0.6515 23.18567,-1.0573 3.44901,-0.0811 5.96416,0.0154 6.65232,0.25529 0.83325,0.29049 1.59792,0.26917 3.09697,-0.0863 3.01064,-0.71392 19.04992,-0.56229 22.80481,0.21549 1.55223,0.32153 4.16377,0.58232 5.80326,0.58032 1.63944,-0.002 3.54447,0.19938 4.23334,0.44856 0.68887,0.24915 2.12542,0.6518 3.19257,0.89451 2.4648,0.56057 6.07171,1.75893 6.50864,2.16215 0.18433,0.1701 0.58698,0.30902 0.89503,0.30902 0.30808,0 1.90363,0.56141 3.54552,1.24747 1.64193,0.68605 3.69973,1.34522 4.57285,1.46503 0.87313,0.11981 2.14067,0.51088 2.81689,0.86919 0.67622,0.3583 1.36789,0.65164 1.53686,0.65164 0.16899,0 0.90889,0.47626 1.64383,1.05834 0.73496,0.5821 1.60737,1.05833 1.93889,1.05833 0.5062,0 2.12532,0.73562 4.76353,2.16369 0.29104,0.15755 1.04714,0.54754 1.68,0.86713 0.63286,0.31958 1.52024,1.02069 1.97197,1.55753 0.85711,1.01862 0.718,1.32606 3.78044,3.12168 2.47304,-3.10211 6.45695,-8.85771 8.73009,-11.19183 -3.141,-2.19474 -1.96485,-1.67943 -3.99167,-4.25416 -1.39655,-1.77405 -1.42933,-1.79174 -3.175,-1.67949 -0.97014,0.0624 -2.02932,0.23421 -2.35386,0.38189 -0.40077,0.18236 -0.85016,0.005 -1.40044,-0.55242 -1.30892,-1.32636 -5.93294,-3.46697 -7.48946,-3.46697 -1.96688,0 -3.99745,-0.67331 -6.16087,-2.04329 -1.69598,-1.07402 -1.98239,-1.15063 -2.89388,-0.77308 -0.90945,0.37672 -1.17798,0.3067 -2.65771,-0.69194 -1.4999,-1.01228 -1.6995,-1.06208 -2.24896,-0.56483 -0.33163,0.30013 -0.87892,0.54571 -1.21595,0.54571 -0.79854,0 -2.07724,-0.67866 -2.4412,-1.29553 -0.21387,-0.36246 -0.72949,-0.42795 -2.01951,-0.25683 -1.25095,0.16595 -2.06428,0.0722 -2.9254,-0.33642 -0.85865,-0.40745 -2.10489,-0.55161 -4.44986,-0.51521 -2.04026,0.0317 -3.34677,-0.0945 -3.49695,-0.33745 -0.24717,-0.39994 -1.36938,-0.6196 -2.81739,-0.6351 z"
         inkscape:connector-curvature="0" />
    </g>
  </g>
</svg>
